<svg xmlns="http://www.w3.org/2000/svg" width="512" height="512" viewBox="0 0 512 512">
<rect width="512" height="512" rx="96" fill="#3c3448"/>
<g><rect x="64" y="64" width="48" height="48" fill="#f0d9b5"/><rect x="112" y="64" width="48" height="48" fill="#b58863"/><rect x="160" y="64" width="48" height="48" fill="#f0d9b5"/><rect x="208" y="64" width="48" height="48" fill="#b58863"/><rect x="256" y="64" width="48" height="48" fill="#f0d9b5"/><rect x="304" y="64" width="48" height="48" fill="#b58863"/><rect x="352" y="64" width="48" height="48" fill="#f0d9b5"/><rect x="400" y="64" width="48" height="48" fill="#b58863"/><rect x="64" y="112" width="48" height="48" fill="#b58863"/><rect x="112" y="112" width="48" height="48" fill="#f0d9b5"/><rect x="160" y="112" width="48" height="48" fill="#b58863"/><rect x="208" y="112" width="48" height="48" fill="#f0d9b5"/><rect x="256" y="112" width="48" height="48" fill="#b58863"/><rect x="304" y="112" width="48" height="48" fill="#f0d9b5"/><rect x="352" y="112" width="48" height="48" fill="#b58863"/><rect x="400" y="112" width="48" height="48" fill="#f0d9b5"/><rect x="64" y="160" width="48" height="48" fill="#f0d9b5"/><rect x="112" y="160" width="48" height="48" fill="#b58863"/><rect x="160" y="160" width="48" height="48" fill="#f0d9b5"/><rect x="208" y="160" width="48" height="48" fill="#b58863"/><rect x="256" y="160" width="48" height="48" fill="#f0d9b5"/><rect x="304" y="160" width="48" height="48" fill="#b58863"/><rect x="352" y="160" width="48" height="48" fill="#f0d9b5"/><rect x="400" y="160" width="48" height="48" fill="#b58863"/><rect x="64" y="208" width="48" height="48" fill="#b58863"/><rect x="112" y="208" width="48" height="48" fill="#f0d9b5"/><rect x="160" y="208" width="48" height="48" fill="#b58863"/><rect x="208" y="208" width="48" height="48" fill="#f0d9b5"/><rect x="256" y="208" width="48" height="48" fill="#b58863"/><rect x="304" y="208" width="48" height="48" fill="#f0d9b5"/><rect x="352" y="208" width="48" height="48" fill="#b58863"/><rect x="400" y="208" width="48" height="48" fill="#f0d9b5"/><rect x="64" y="256" width="48" height="48" fill="#f0d9b5"/><rect x="112" y="256" width="48" height="48" fill="#b58863"/><rect x="160" y="256" width="48" height="48" fill="#f0d9b5"/><rect x="208" y="256" width="48" height="48" fill="#b58863"/><rect x="256" y="256" width="48" height="48" fill="#f0d9b5"/><rect x="304" y="256" width="48" height="48" fill="#b58863"/><rect x="352" y="256" width="48" height="48" fill="#f0d9b5"/><rect x="400" y="256" width="48" height="48" fill="#b58863"/><rect x="64" y="304" width="48" height="48" fill="#b58863"/><rect x="112" y="304" width="48" height="48" fill="#f0d9b5"/><rect x="160" y="304" width="48" height="48" fill="#b58863"/><rect x="208" y="304" width="48" height="48" fill="#f0d9b5"/><rect x="256" y="304" width="48" height="48" fill="#b58863"/><rect x="304" y="304" width="48" height="48" fill="#f0d9b5"/><rect x="352" y="304" width="48" height="48" fill="#b58863"/><rect x="400" y="304" width="48" height="48" fill="#f0d9b5"/><rect x="64" y="352" width="48" height="48" fill="#f0d9b5"/><rect x="112" y="352" width="48" height="48" fill="#b58863"/><rect x="160" y="352" width="48" height="48" fill="#f0d9b5"/><rect x="208" y="352" width="48" height="48" fill="#b58863"/><rect x="256" y="352" width="48" height="48" fill="#f0d9b5"/><rect x="304" y="352" width="48" height="48" fill="#b58863"/><rect x="352" y="352" width="48" height="48" fill="#f0d9b5"/><rect x="400" y="352" width="48" height="48" fill="#b58863"/><rect x="64" y="400" width="48" height="48" fill="#b58863"/><rect x="112" y="400" width="48" height="48" fill="#f0d9b5"/><rect x="160" y="400" width="48" height="48" fill="#b58863"/><rect x="208" y="400" width="48" height="48" fill="#f0d9b5"/><rect x="256" y="400" width="48" height="48" fill="#b58863"/><rect x="304" y="400" width="48" height="48" fill="#f0d9b5"/><rect x="352" y="400" width="48" height="48" fill="#b58863"/><rect x="400" y="400" width="48" height="48" fill="#f0d9b5"/></g>
</svg>